<svg id="svg" xmlns="http://www.w3.org/2000/svg" xmlns:xlink="http://www.w3.org/1999/xlink" width="400" height="424.02826855123675" viewBox="0, 0, 400,424.02826855123675"><g id="svgg"><path id="path0" d="M250.267 10.832 C 225.693 23.053,217.483 25.050,212.853 19.934 C 207.901 14.462,202.632 15.963,193.529 25.442 C 189.049 30.106,184.453 33.922,183.315 33.922 C 177.585 33.922,157.345 46.148,147.331 55.658 C 122.519 79.221,109.668 109.071,106.664 150.120 C 105.903 160.519,105.345 162.564,103.077 163.284 C 82.949 169.672,37.000 211.919,13.949 245.230 C -11.680 282.268,-4.811 285.850,40.989 259.328 C 72.066 241.332,78.782 237.622,101.612 225.838 C 124.896 213.818,125.729 213.716,125.773 222.876 C 125.800 228.464,128.200 235.057,129.839 234.044 C 130.511 233.628,131.436 236.919,131.894 241.357 C 132.351 245.794,133.326 249.625,134.059 249.869 C 135.817 250.455,132.731 258.657,130.753 258.657 C 129.934 258.657,124.296 256.744,118.225 254.406 C 106.500 249.892,106.396 249.902,99.280 256.365 C 91.100 263.794,87.776 272.881,86.280 291.909 C 84.902 309.436,81.767 321.454,72.160 346.032 C 66.796 359.757,66.842 359.921,74.976 355.991 C 115.554 336.386,143.469 344.027,207.355 392.226 C 245.863 421.278,248.123 422.344,274.044 423.691 L 288.724 424.454 287.722 417.527 C 284.344 394.165,274.868 375.974,255.022 354.753 C 242.334 341.186,241.595 336.801,250.402 327.348 C 251.870 325.772,253.793 322.074,254.675 319.132 C 256.569 312.809,258.451 312.525,276.096 315.901 C 305.765 321.579,327.228 306.462,313.777 289.362 L 310.947 285.764 313.777 279.161 C 317.204 271.166,317.246 270.186,314.295 266.925 C 312.145 264.549,312.170 264.303,314.649 263.419 C 322.120 260.754,324.839 251.659,320.162 244.981 C 317.734 241.515,319.362 240.283,326.371 240.283 C 331.508 240.283,336.396 234.952,336.396 229.351 C 336.396 224.994,320.131 201.256,312.422 194.362 C 306.962 189.479,306.411 187.138,309.519 182.040 C 311.216 179.256,312.359 174.898,312.362 171.196 L 312.367 165.006 325.442 165.947 C 346.086 167.431,365.784 169.604,378.630 171.814 C 396.198 174.836,400.305 174.614,399.745 170.671 C 398.784 163.908,374.645 156.401,338.916 151.754 L 319.529 149.233 320.525 145.641 C 323.603 134.543,319.458 85.226,311.701 40.636 C 311.216 37.847,311.614 36.749,313.110 36.749 C 319.666 36.749,313.097 23.025,300.522 10.450 L 290.072 0.000 281.060 0.000 C 272.665 0.000,270.557 0.742,250.267 10.832 M294.624 29.544 C 297.250 30.571,297.234 30.657,294.271 31.432 C 290.487 32.422,290.216 34.758,293.778 35.689 C 300.140 37.353,301.572 60.115,296.059 71.958 L 292.500 79.605 286.106 69.838 C 282.589 64.466,276.649 56.890,272.905 53.004 C 260.337 39.956,276.531 22.464,294.624 29.544 " stroke="none" fill="#000000" fill-rule="evenodd"></path></g></svg>